<svg xmlns="http://www.w3.org/2000/svg" viewBox="0 0 215.83 192.35"><defs><style>.cls-1{fill:#0c2834;}</style></defs><title>Fichier 3</title><g id="Calque_2" data-name="Calque 2"><g id="Calque_1-2" data-name="Calque 1"><path class="cls-1" d="M160.3,90.6v-.54c30.43-9.29,41.32-28,41.32-47.29C201.62,18.05,183,.55,146,0h-3.12l-3,0L134.8,0H64.6C21.45.35,0,22.3,0,53.67,0,80,15.28,114.51,71.6,114.51H92v49c0,7.48-.51,12.52-2.14,15.95-3.4,5.66-10.57,6.93-24.79,7.43v5.44c1.48-.08,3.12-.16,4.88-.23v.23c5.26-.36,13.34-.61,22.07-.72l1.9,0c3.7,0,7.45-.05,11.14-.05h4.3c7.74,0,14.65.18,20.64.31h.26c3.73.12,7,.27,9.6.45v-.21c4.37.12,7.93.21,10.59.21,40.79,0,65.36-21.78,65.36-52.74C215.83,117.56,203.35,96.31,160.3,90.6Zm15.28-44.91c0,23.65-8,44.37-40,44.37H117.83V28.56C117.83,9,121.35,6,139.35,5.21,165.2,5.84,175.58,19.62,175.58,45.69ZM74.26,109.06c-38.53,0-47-24.71-47-52.47C27.23,23,39,5.88,70.43,5.2,88.5,6,92,8.93,92,28.56v80.5Zm63.46,77.05c-5.27,0-9.24-.35-12.22-1.41h0c-6.13-2.61-7.65-8.3-7.65-21.16V94.71h22.28c34.54,0,48.49,16.08,48.49,43.71C188.6,169,173.32,186.11,137.72,186.11Z"/></g></g></svg>